<?xml version="1.0" encoding="UTF-8" standalone="no"?><svg xmlns:svg="http://www.w3.org/2000/svg" xmlns="http://www.w3.org/2000/svg" xmlns:xlink="http://www.w3.org/1999/xlink" version="1.0" width="150px" height="150px" viewBox="0 0 128 128" xml:space="preserve"><g>
<path fill="#2c8134" d="M70.48 35.8l-6.16-6.24-6.16 6.26L64.32.88z"/><path fill="#e9f2ea" d="M70.48 35.8l-6.16-6.24-6.16 6.26L64.32.88z" transform="rotate(30 64 64)"/><path fill="#e9f2ea" d="M70.48 35.8l-6.16-6.24-6.16 6.26L64.32.88z" transform="rotate(60 64 64)"/><path fill="#e9f2ea" d="M70.48 35.8l-6.16-6.24-6.16 6.26L64.32.88z" transform="rotate(90 64 64)"/><path fill="#e9f2ea" d="M70.48 35.8l-6.16-6.24-6.16 6.26L64.32.88z" transform="rotate(120 64 64)"/><path fill="#e9f2ea" d="M70.48 35.8l-6.16-6.24-6.16 6.26L64.32.88z" transform="rotate(150 64 64)"/><path fill="#e9f2ea" d="M70.48 35.8l-6.16-6.24-6.16 6.26L64.32.88z" transform="rotate(180 64 64)"/><path fill="#e9f2ea" d="M70.48 35.8l-6.16-6.24-6.16 6.26L64.32.88z" transform="rotate(210 64 64)"/><path fill="#d5e6d6" d="M70.48 35.8l-6.16-6.24-6.16 6.26L64.32.88z" transform="rotate(240 64 64)"/><path fill="#abcdae" d="M70.48 35.8l-6.16-6.24-6.16 6.26L64.32.88z" transform="rotate(270 64 64)"/><path fill="#80b385" d="M70.48 35.8l-6.16-6.24-6.16 6.26L64.32.88z" transform="rotate(300 64 64)"/><path fill="#569a5d" d="M70.48 35.8l-6.16-6.24-6.16 6.26L64.32.88z" transform="rotate(330 64 64)"/><animateTransform attributeName="transform" type="rotate" values="0 64 64;30 64 64;60 64 64;90 64 64;120 64 64;150 64 64;180 64 64;210 64 64;240 64 64;270 64 64;300 64 64;330 64 64" calcMode="discrete" dur="1320ms" repeatCount="indefinite"></animateTransform></g></svg>